<svg xmlns="http://www.w3.org/2000/svg" viewBox="0 0 3220 751" role="img" aria-label="La Presidentielle Inversee" fill="currentColor">
      <g><path d="M498.508,740.954l0,-396.417l86.667,0l8.292,54.267l5.279,0c9.042,-13.067 19.967,-24.371 32.779,-33.917c12.817,-9.542 27.25,-16.829 43.337,-21.858c16.071,-5.012 33.654,-7.533 52.754,-7.533c26.117,0 48.988,4.779 68.583,14.321c19.596,9.546 34.783,24.617 45.592,45.212c10.8,20.608 16.204,47.479 16.204,80.646l0,265.279l-104.754,0l0,-248.7c0,-12.55 -1.508,-23.233 -4.525,-32.029c-3.012,-8.788 -7.417,-16.075 -13.188,-21.858c-5.779,-5.771 -12.942,-9.917 -21.479,-12.438c-8.55,-2.508 -18.088,-3.763 -28.638,-3.763c-15.579,0 -29.654,3.763 -42.204,11.304c-12.567,7.529 -22.362,17.833 -29.392,30.9c-7.046,13.067 -10.554,28.138 -10.554,45.212l0,231.371l-104.754,0Z" style="fill:#fbb1d7;fill-rule:nonzero;"></path><path d="M1030.573,740.954l-147.712,-396.417l110.779,0l58.033,167.312c3.013,8.55 6.654,19.846 10.929,33.908c4.263,14.075 8.662,28.9 13.188,44.471c4.521,15.575 8.292,29.642 11.304,42.204l3.767,0c3.513,-11.558 7.279,-24.996 11.304,-40.325c4.021,-15.317 8.167,-30.142 12.438,-44.467c4.267,-14.321 7.912,-26.246 10.929,-35.792l58.029,-167.312l105.508,0l-148.467,396.417l-110.029,0Z" style="fill:#fbb1d7;fill-rule:nonzero;"></path><path d="M1404.377,499.785l167.308,0c0,-15.071 -1.883,-28.129 -5.65,-39.188c-3.771,-11.046 -8.929,-20.083 -15.45,-27.129c-6.538,-7.033 -14.45,-12.179 -23.742,-15.45c-9.304,-3.258 -19.725,-4.9 -31.275,-4.9c-19.1,0 -35.046,3.15 -47.858,9.425c-12.812,6.283 -22.608,15.821 -29.392,28.633c-6.779,12.812 -11.429,29.012 -13.942,48.608m91.946,250.217c-43.713,0 -80.392,-7.421 -110.033,-22.242c-29.654,-14.808 -52,-37.546 -67.075,-68.2c-15.075,-30.642 -22.608,-69.583 -22.608,-116.812c0,-47.729 7.533,-86.783 22.608,-117.196c15.075,-30.388 37.304,-52.996 66.696,-67.825c29.392,-14.817 65.442,-22.229 108.15,-22.229c40.188,0 74.104,7.158 101.742,21.471c27.625,14.321 48.479,36.438 62.554,66.325c14.058,29.896 21.1,68.462 21.1,115.679l0,27.137l-276.588,0c1.004,23.117 4.642,42.708 10.929,58.783c6.279,16.083 16.075,28.012 29.396,35.796c13.304,7.8 31.013,11.683 53.129,11.683c12.054,0 22.987,-1.508 32.783,-4.525c9.796,-3.017 18.204,-7.529 25.246,-13.562c7.033,-6.033 12.554,-13.562 16.579,-22.608c4.017,-9.042 6.029,-19.337 6.029,-30.9l102.496,0c0,25.129 -4.521,46.987 -13.567,65.562c-9.042,18.592 -21.608,34.042 -37.679,46.35c-16.088,12.317 -35.304,21.608 -57.654,27.883c-22.362,6.279 -47.104,9.429 -74.233,9.429" style="fill:#fbb1d7;fill-rule:nonzero;"></path><path d="M1743.439,740.954l0,-396.417l86.667,0l8.292,61.8l5.279,0c5.013,-13.058 11.546,-24.987 19.592,-35.796c8.029,-10.8 18.088,-19.471 30.146,-26.004c12.058,-6.521 26.121,-9.8 42.208,-9.8c8.542,0 16.325,0.883 23.367,2.638c7.025,1.771 12.3,3.396 15.821,4.904l0,94.958l-32.417,0c-15.571,0 -29.267,2.137 -41.067,6.4c-11.812,4.279 -21.733,10.937 -29.767,19.975c-8.042,9.046 -13.942,20.1 -17.713,33.158c-3.767,13.075 -5.654,28.396 -5.654,45.979l0,198.204l-104.754,0Z" style="fill:#fbb1d7;fill-rule:nonzero;"></path><path d="M2184.009,750.002c-27.642,0 -52.508,-3.017 -74.613,-9.046c-22.112,-6.033 -40.958,-14.442 -56.521,-25.25c-15.583,-10.8 -27.513,-23.738 -35.8,-38.808c-8.292,-15.071 -12.433,-32.15 -12.433,-51.254l0,-6.025c0,-2.004 0.242,-3.513 0.746,-4.521l100.992,0l0,6.029c0.496,12.562 4.525,22.737 12.062,30.521c7.533,7.796 17.446,13.446 29.762,16.958c12.308,3.521 25.25,5.275 38.821,5.275c12.054,0 23.737,-1.129 35.046,-3.396c11.304,-2.258 20.838,-6.4 28.633,-12.433c7.783,-6.025 11.683,-13.808 11.683,-23.363c0,-12.054 -4.904,-21.346 -14.7,-27.883c-9.796,-6.529 -22.613,-11.8 -38.433,-15.829c-15.829,-4.008 -33.046,-8.533 -51.621,-13.562c-17.096,-4.017 -34.179,-8.667 -51.254,-13.942c-17.083,-5.275 -32.533,-12.183 -46.35,-20.725c-13.825,-8.542 -24.996,-19.712 -33.538,-33.533c-8.542,-13.817 -12.804,-31.279 -12.804,-52.383c0,-20.596 4.517,-38.55 13.562,-53.883c9.038,-15.321 21.475,-28.008 37.304,-38.058c15.829,-10.05 34.413,-17.454 55.767,-22.233c21.354,-4.767 44.338,-7.158 68.963,-7.158c23.104,0 44.713,2.392 64.812,7.158c20.083,4.779 37.683,11.812 52.754,21.104c15.071,9.3 26.875,20.85 35.425,34.667c8.533,13.821 12.813,29.271 12.813,46.35l0,9.796c0,3.008 -0.263,5.029 -0.758,6.025l-100.233,0l0,-6.025c0,-9.046 -2.771,-16.696 -8.287,-22.992c-5.533,-6.275 -13.454,-11.167 -23.738,-14.692c-10.304,-3.512 -22.746,-5.279 -37.312,-5.279c-10.05,0 -19.217,0.758 -27.504,2.267c-8.292,1.508 -15.45,3.762 -21.483,6.779c-6.025,3.017 -10.683,6.662 -13.942,10.925c-3.267,4.275 -4.896,9.421 -4.896,15.454c0,8.55 3.642,15.45 10.929,20.721c7.275,5.275 16.958,9.679 29.013,13.192c12.062,3.521 25.362,7.288 39.946,11.308c18.088,5.029 37.042,9.921 56.896,14.692c19.842,4.783 38.308,11.188 55.392,19.212c17.075,8.046 30.9,19.488 41.454,34.296c10.55,14.829 15.821,34.8 15.821,59.913c0,24.121 -4.65,44.462 -13.942,61.05c-9.3,16.579 -22.229,29.9 -38.808,39.942c-16.579,10.058 -35.929,17.337 -58.029,21.85c-22.113,4.525 -45.971,6.792 -71.596,6.792" style="fill:#fbb1d7;fill-rule:nonzero;"></path><path d="M2551.111,295.549l62.55,-99.483l107.771,0l1.508,2.267l-90.433,97.217l-81.396,0Zm-34.667,204.238l167.304,0c0,-15.071 -1.883,-28.129 -5.65,-39.192c-3.767,-11.042 -8.929,-20.083 -15.45,-27.125c-6.537,-7.033 -14.45,-12.179 -23.742,-15.45c-9.3,-3.258 -19.721,-4.904 -31.279,-4.904c-19.096,0 -35.042,3.154 -47.85,9.429c-12.812,6.283 -22.608,15.821 -29.392,28.633c-6.787,12.813 -11.438,29.012 -13.942,48.608m91.942,250.217c-43.713,0 -80.392,-7.425 -110.037,-22.242c-29.642,-14.808 -51.992,-37.546 -67.071,-68.2c-15.071,-30.642 -22.604,-69.588 -22.604,-116.812c0,-47.733 7.533,-86.788 22.604,-117.196c15.079,-30.388 37.308,-53 66.7,-67.825c29.396,-14.817 65.433,-22.233 108.142,-22.233c40.196,0 74.108,7.162 101.75,21.475c27.621,14.321 48.479,36.433 62.55,66.325c14.058,29.896 21.1,68.462 21.1,115.679l0,27.137l-276.583,0c0.996,23.113 4.633,42.708 10.929,58.783c6.275,16.079 16.071,28.008 29.392,35.792c13.3,7.804 31.017,11.688 53.129,11.688c12.058,0 22.983,-1.508 32.779,-4.525c9.8,-3.017 18.204,-7.533 25.25,-13.562c7.033,-6.033 12.55,-13.562 16.575,-22.613c4.021,-9.037 6.033,-19.333 6.033,-30.9l102.496,0c0,25.129 -4.521,46.992 -13.562,65.567c-9.046,18.592 -21.608,34.042 -37.679,46.35c-16.092,12.317 -35.308,21.608 -57.654,27.883c-22.367,6.279 -47.108,9.429 -74.237,9.429" style="fill:#fbb1d7;fill-rule:nonzero;"></path><path d="M2944.892,499.785l167.304,0c0,-15.071 -1.888,-28.129 -5.65,-39.188c-3.767,-11.046 -8.933,-20.083 -15.45,-27.129c-6.538,-7.033 -14.45,-12.179 -23.742,-15.45c-9.3,-3.258 -19.721,-4.9 -31.279,-4.9c-19.096,0 -35.046,3.15 -47.85,9.425c-12.812,6.283 -22.608,15.821 -29.392,28.633c-6.787,12.812 -11.442,29.012 -13.942,48.608m91.942,250.217c-43.713,0 -80.392,-7.421 -110.037,-22.242c-29.646,-14.808 -51.992,-37.546 -67.071,-68.2c-15.075,-30.642 -22.604,-69.583 -22.604,-116.812c0,-47.729 7.529,-86.783 22.604,-117.196c15.079,-30.388 37.308,-52.996 66.7,-67.825c29.392,-14.817 65.433,-22.229 108.142,-22.229c40.192,0 74.108,7.158 101.75,21.471c27.621,14.321 48.479,36.438 62.55,66.325c14.058,29.896 21.1,68.462 21.1,115.679l0,27.137l-276.583,0c0.996,23.117 4.633,42.708 10.925,58.783c6.279,16.083 16.075,28.012 29.396,35.796c13.3,7.8 31.017,11.683 53.129,11.683c12.054,0 22.983,-1.508 32.779,-4.525c9.796,-3.017 18.204,-7.529 25.246,-13.562c7.037,-6.033 12.554,-13.562 16.579,-22.608c4.021,-9.042 6.033,-19.337 6.033,-30.9l102.496,0c0,25.129 -4.521,46.987 -13.562,65.562c-9.046,18.592 -21.608,34.042 -37.679,46.35c-16.092,12.317 -35.308,21.608 -57.658,27.883c-22.367,6.279 -47.108,9.429 -74.233,9.429" style="fill:#fbb1d7;fill-rule:nonzero;"></path><path d="M274.233,210.744c-9.517,-9.462 -22.167,-14.679 -35.625,-14.679c-13.492,0 -26.15,5.225 -35.646,14.721l-202.963,203.017l70.525,70.529l118.483,-118.45l-0.129,377.417l99.742,0l-0.017,-377.312l73.163,73.412c0.667,0.663 1.379,1.258 2.217,1.9l33.512,33.512l70.529,-70.525l-193.792,-193.542Z" style="fill:#fbb1d7;fill-rule:nonzero;"></path><path d="M498.508,194.79l0,-184.825l25.592,0l0,162.463l91.875,0l0,22.362l-117.467,0Z" style="fill:#FFFFFF;fill-rule:nonzero;"></path><path d="M683.676,178.087c5.746,0 11.183,-0.896 16.296,-2.692c5.117,-1.796 9.658,-4.358 13.608,-7.679c3.95,-3.321 7.092,-7.317 9.429,-11.992c2.329,-4.667 3.504,-9.783 3.504,-15.358l0,-11.854c-14.554,0 -26.946,0.812 -37.188,2.425c-10.233,1.621 -18.092,4.496 -23.571,8.617c-5.479,4.142 -8.212,9.975 -8.212,17.517c0,4.85 1.079,8.8 3.225,11.854c2.158,3.054 5.212,5.35 9.163,6.867c3.954,1.537 8.533,2.296 13.746,2.296m-5.929,19.938c-5.208,0 -10.421,-0.629 -15.633,-1.887c-5.208,-1.262 -10.058,-3.321 -14.546,-6.196c-4.483,-2.871 -8.083,-6.867 -10.775,-11.992c-2.692,-5.117 -4.038,-11.538 -4.038,-19.258c0,-9.704 2.329,-17.696 7.004,-23.983c4.671,-6.283 11.183,-11.183 19.533,-14.688c8.354,-3.492 18.275,-5.925 29.767,-7.271c11.492,-1.346 23.975,-2.021 37.454,-2.021l0,-16.158c0,-5.212 -0.908,-9.708 -2.7,-13.475c-1.796,-3.771 -4.979,-6.688 -9.562,-8.758c-4.579,-2.062 -11.092,-3.096 -19.533,-3.096c-8.083,0 -14.5,1.033 -19.262,3.096c-4.763,2.071 -8.087,4.721 -9.967,7.946c-1.888,3.233 -2.829,6.833 -2.829,10.783l0,4.037l-22.9,0c-0.179,-0.896 -0.275,-1.792 -0.275,-2.692l0,-3.233c0,-8.621 2.383,-15.85 7.146,-21.692c4.754,-5.833 11.446,-10.233 20.067,-13.2c8.629,-2.958 18.496,-4.442 29.637,-4.442c11.854,0 21.775,1.708 29.775,5.117c7.988,3.417 14.008,8.263 18.046,14.546c4.046,6.287 6.067,13.838 6.067,22.629l0,76.788c0,3.417 0.804,5.796 2.425,7.142c1.613,1.346 3.588,2.021 5.925,2.021l10.508,0l0,15.625c-2.517,1.079 -5.304,2.017 -8.35,2.829c-3.062,0.812 -6.567,1.208 -10.508,1.208c-4.675,0 -8.533,-0.942 -11.587,-2.821c-3.054,-1.892 -5.392,-4.496 -7.004,-7.817c-1.612,-3.321 -2.692,-7.05 -3.237,-11.183l-1.879,0c-3.237,4.496 -7.325,8.404 -12.262,11.717c-4.942,3.333 -10.463,5.892 -16.571,7.679c-6.108,1.796 -12.754,2.7 -19.933,2.7" style="fill:#FFFFFF;fill-rule:nonzero;"></path><path d="M875.497,101.844l63.854,0c10.058,0 18.092,-3.142 24.113,-9.429c6.017,-6.292 9.025,-14.908 9.025,-25.867c0,-7.358 -1.258,-13.562 -3.771,-18.592c-2.517,-5.021 -6.2,-8.929 -11.05,-11.717c-4.85,-2.788 -10.958,-4.175 -18.317,-4.175l-63.854,0l0,69.779Zm-25.592,92.946l0,-184.821l91.333,0c12.746,0 23.35,2.379 31.788,7.142c8.446,4.763 14.771,11.362 18.996,19.8c4.221,8.446 6.333,18.233 6.333,29.371c0,11.308 -2.337,21.325 -7.004,30.042c-4.675,8.712 -11.279,15.487 -19.8,20.333c-8.533,4.85 -18.733,7.275 -30.587,7.275l-65.467,0l0,70.858l-25.592,0Z" style="fill:#FFFFFF;fill-rule:nonzero;"></path><path d="M1021.824,194.79l0,-141.712l19.129,0l2.154,23.433l1.883,0c1.442,-4.483 3.408,-8.754 5.925,-12.792c2.513,-4.042 5.929,-7.363 10.242,-9.967c4.304,-2.604 9.604,-3.908 15.892,-3.908c2.692,0 5.163,0.225 7.413,0.671c2.242,0.45 3.908,0.942 4.987,1.487l0,21.817l-8.896,0c-6.108,0 -11.362,1.038 -15.763,3.1c-4.4,2.071 -8.042,4.983 -10.904,8.754c-2.883,3.771 -4.987,8.267 -6.333,13.471c-1.346,5.208 -2.021,10.775 -2.021,16.7l0,78.946l-23.708,0Z" style="fill:#FFFFFF;fill-rule:nonzero;"></path><path d="M1151.896,35.565l23.167,-35.562l26.942,0l0.271,0.808l-29.904,34.754l-20.475,0Zm-25.867,76.513l76.787,0c0,-7.904 -0.904,-14.55 -2.7,-19.942c-1.796,-5.383 -4.358,-9.783 -7.679,-13.2c-3.321,-3.408 -7.179,-5.875 -11.579,-7.4c-4.408,-1.529 -9.388,-2.296 -14.95,-2.296c-8.267,0 -15.271,1.525 -21.017,4.579c-5.758,3.054 -10.158,7.725 -13.2,14.012c-3.054,6.292 -4.946,14.375 -5.662,24.246m39.6,85.95c-14,0 -25.821,-2.658 -35.425,-7.95c-9.608,-5.296 -16.883,-13.421 -21.817,-24.387c-4.946,-10.95 -7.412,-24.875 -7.412,-41.758c0,-17.058 2.467,-31.025 7.412,-41.896c4.933,-10.862 12.25,-18.95 21.954,-24.246c9.7,-5.296 21.821,-7.946 36.367,-7.946c13.296,0 24.425,2.554 33.408,7.679c8.979,5.117 15.763,12.75 20.346,22.896c4.579,10.146 6.867,22.867 6.867,38.129l0,11.308l-101.833,0c0.354,11.321 2.017,20.613 4.979,27.888c2.967,7.271 7.408,12.579 13.338,15.9c5.925,3.321 13.379,4.979 22.362,4.979c6.1,0 11.45,-0.762 16.029,-2.287c4.583,-1.529 8.438,-3.729 11.587,-6.6c3.142,-2.875 5.521,-6.292 7.138,-10.242c1.612,-3.942 2.508,-8.258 2.692,-12.933l23.171,0c-0.179,7.55 -1.612,14.512 -4.312,20.879c-2.692,6.383 -6.642,11.821 -11.854,16.308c-5.213,4.483 -11.579,7.987 -19.129,10.508c-7.537,2.508 -16.158,3.771 -25.867,3.771" style="fill:#FFFFFF;fill-rule:nonzero;"></path><path d="M1305.021,198.026c-9.696,0 -18.229,-0.992 -25.592,-2.967c-7.367,-1.979 -13.467,-4.85 -18.325,-8.621c-4.846,-3.771 -8.533,-8.258 -11.042,-13.467c-2.521,-5.212 -3.771,-11.137 -3.771,-17.783l0,-2.562c0,-0.808 0.088,-1.483 0.267,-2.017l23.442,0c-0.179,0.717 -0.267,1.346 -0.267,1.879l0,1.621c0.171,6.292 1.837,11.225 4.979,14.817c3.138,3.596 7.496,6.108 13.071,7.546c5.562,1.433 11.758,2.15 18.592,2.15c5.929,0 11.396,-0.758 16.429,-2.287c5.029,-1.525 9.033,-3.854 11.992,-7.004c2.967,-3.142 4.442,-7.133 4.442,-11.992c0,-5.929 -1.933,-10.458 -5.788,-13.608c-3.867,-3.137 -8.938,-5.608 -15.221,-7.4c-6.287,-1.796 -12.846,-3.683 -19.671,-5.662c-5.754,-1.613 -11.5,-3.408 -17.246,-5.392c-5.746,-1.967 -10.904,-4.392 -15.488,-7.271c-4.583,-2.867 -8.267,-6.6 -11.042,-11.183c-2.788,-4.571 -4.179,-10.371 -4.179,-17.375c0,-6.283 1.296,-11.854 3.9,-16.704c2.608,-4.85 6.333,-8.983 11.183,-12.392c4.85,-3.417 10.733,-5.967 17.65,-7.675c6.913,-1.708 14.592,-2.563 23.038,-2.563c8.975,0 16.833,0.992 23.571,2.967c6.737,1.975 12.346,4.754 16.842,8.35c4.487,3.592 7.808,7.679 9.967,12.254c2.154,4.579 3.233,9.479 3.233,14.683l0,3.096c0,0.992 -0.096,1.754 -0.267,2.296l-23.175,0l0,-2.967c0,-3.592 -0.942,-7.042 -2.829,-10.371c-1.879,-3.321 -5.117,-6.013 -9.696,-8.083c-4.583,-2.063 -10.917,-3.1 -19,-3.1c-5.213,0 -9.696,0.408 -13.467,1.217c-3.771,0.804 -6.921,2.063 -9.433,3.771c-2.517,1.708 -4.4,3.683 -5.658,5.929c-1.258,2.242 -1.879,4.804 -1.879,7.679c0,4.667 1.517,8.262 4.579,10.775c3.046,2.517 7.138,4.579 12.254,6.196c5.125,1.621 10.646,3.412 16.571,5.392c6.283,1.792 12.7,3.629 19.267,5.521c6.55,1.879 12.571,4.271 18.05,7.133c5.479,2.883 9.879,6.783 13.2,11.725c3.321,4.946 4.987,11.45 4.987,19.533c0,7.542 -1.442,14.1 -4.312,19.663c-2.875,5.575 -6.962,10.158 -12.263,13.746c-5.296,3.596 -11.492,6.237 -18.583,7.946c-7.1,1.708 -14.867,2.562 -23.312,2.562" style="fill:#FFFFFF;fill-rule:nonzero;"></path><path d="M1390.029,53.079l23.708,0l0,141.712l-23.708,0l0,-141.712Zm0,-53.079l23.708,0l0,26.4l-23.708,0l0,-26.4Z" style="fill:#FFFFFF;fill-rule:nonzero;"></path><path d="M1502.968,177.276c8.983,0 16.254,-1.975 21.821,-5.929c5.571,-3.942 9.654,-9.696 12.258,-17.238c2.604,-7.55 3.908,-16.883 3.908,-28.021l0,-4.317c0,-9.696 -0.992,-17.867 -2.958,-24.508c-1.983,-6.646 -4.675,-11.942 -8.083,-15.904c-3.417,-3.942 -7.371,-6.729 -11.854,-8.35c-4.496,-1.612 -9.258,-2.425 -14.279,-2.425c-8.8,0 -15.987,1.754 -21.554,5.254c-5.575,3.504 -9.704,8.983 -12.396,16.438c-2.692,7.454 -4.037,17.108 -4.037,28.963l0,5.658c0,12.217 1.429,22.054 4.304,29.5c2.871,7.454 7.046,12.796 12.525,16.029c5.479,3.238 12.263,4.85 20.346,4.85m-5.658,20.75c-11.675,0 -21.683,-2.604 -30.042,-7.817c-8.354,-5.204 -14.817,-13.338 -19.396,-24.383c-4.583,-11.042 -6.867,-25.367 -6.867,-42.975c0,-16.704 2.329,-30.438 7.004,-41.212c4.667,-10.779 11.129,-18.775 19.396,-23.988c8.254,-5.2 17.867,-7.808 28.825,-7.808c6.287,0 12.129,0.717 17.513,2.158c5.392,1.442 10.192,3.683 14.417,6.729c4.221,3.062 7.946,7.1 11.183,12.129l1.612,0l0,-70.858l23.708,-0l0,194.788l-19.125,0l-2.158,-20.204l-1.879,0c-4.858,7.904 -11.142,13.788 -18.862,17.642c-7.729,3.867 -16.167,5.8 -25.329,5.8" style="fill:#FFFFFF;fill-rule:nonzero;"></path><path d="M1616.655,112.076l76.787,0c0,-7.904 -0.908,-14.546 -2.7,-19.938c-1.796,-5.383 -4.358,-9.783 -7.679,-13.2c-3.321,-3.408 -7.179,-5.879 -11.579,-7.404c-4.408,-1.529 -9.388,-2.296 -14.95,-2.296c-8.267,0 -15.271,1.529 -21.021,4.583c-5.754,3.054 -10.154,7.721 -13.2,14.008c-3.054,6.292 -4.942,14.375 -5.658,24.246m39.6,85.95c-14,0 -25.821,-2.658 -35.425,-7.946c-9.612,-5.3 -16.883,-13.425 -21.817,-24.392c-4.946,-10.95 -7.412,-24.875 -7.412,-41.758c0,-17.058 2.467,-31.025 7.412,-41.896c4.933,-10.862 12.25,-18.946 21.954,-24.246c9.7,-5.296 21.821,-7.946 36.367,-7.946c13.296,0 24.425,2.554 33.408,7.679c8.979,5.117 15.762,12.754 20.342,22.9c4.583,10.146 6.871,22.863 6.871,38.125l0,11.312l-101.833,0c0.354,11.317 2.017,20.608 4.975,27.883c2.971,7.275 7.413,12.579 13.342,15.9c5.925,3.321 13.379,4.979 22.362,4.979c6.1,0 11.45,-0.758 16.029,-2.287c4.583,-1.525 8.438,-3.725 11.588,-6.6c3.142,-2.871 5.521,-6.287 7.133,-10.242c1.617,-3.942 2.513,-8.254 2.692,-12.933l23.175,0c-0.179,7.55 -1.612,14.513 -4.312,20.879c-2.692,6.387 -6.646,11.821 -11.854,16.308c-5.212,4.487 -11.579,7.987 -19.129,10.508c-7.542,2.513 -16.158,3.771 -25.867,3.771" style="fill:#FFFFFF;fill-rule:nonzero;"></path><path d="M1745.407,194.79l0,-141.712l19.129,0l2.154,21.279l1.883,0c3.771,-5.746 8.042,-10.417 12.792,-14.004c4.763,-3.596 10.062,-6.237 15.904,-7.954c5.829,-1.7 12.079,-2.554 18.721,-2.554c8.983,0 16.842,1.525 23.579,4.579c6.729,3.054 12.029,7.992 15.892,14.817c3.858,6.833 5.792,16.079 5.792,27.754l0,97.796l-23.708,0l0,-94.571c0,-5.925 -0.763,-10.775 -2.288,-14.546c-1.529,-3.771 -3.6,-6.738 -6.196,-8.883c-2.604,-2.158 -5.754,-3.687 -9.429,-4.583c-3.683,-0.896 -7.775,-1.346 -12.262,-1.346c-6.65,0 -12.929,1.612 -18.858,4.85c-5.929,3.225 -10.638,7.9 -14.142,14c-3.5,6.108 -5.254,13.392 -5.254,21.829l0,83.25l-23.708,0Z" style="fill:#FFFFFF;fill-rule:nonzero;"></path><path d="M1926.892,198.026c-7.367,0 -13.112,-1.396 -17.246,-4.175c-4.133,-2.787 -7.1,-6.471 -8.888,-11.054c-1.804,-4.571 -2.7,-9.463 -2.7,-14.675l0,-95.113l-18.317,0l0,-19.929l18.858,0l4.308,-39.613l18.858,0l0,39.613l26.675,0l0,19.929l-26.675,0l0,91.608c0,4.487 0.812,7.862 2.425,10.104c1.621,2.242 4.667,3.367 9.163,3.367l15.087,0l0,15.625c-1.8,0.904 -3.95,1.612 -6.467,2.154c-2.512,0.537 -5.075,1.029 -7.679,1.487c-2.608,0.438 -5.075,0.671 -7.404,0.671" style="fill:#FFFFFF;fill-rule:nonzero;"></path><path d="M1970.429,53.079l23.708,0l0,141.712l-23.708,0l0,-141.712Zm0,-53.079l23.708,0l0,26.4l-23.708,0l0,-26.4Z" style="fill:#FFFFFF;fill-rule:nonzero;"></path><path d="M2046.102,112.076l76.787,0c0,-7.904 -0.908,-14.546 -2.7,-19.938c-1.796,-5.383 -4.358,-9.783 -7.679,-13.2c-3.321,-3.408 -7.179,-5.879 -11.579,-7.404c-4.408,-1.529 -9.388,-2.296 -14.95,-2.296c-8.267,0 -15.271,1.529 -21.021,4.583c-5.754,3.054 -10.154,7.721 -13.2,14.008c-3.054,6.292 -4.942,14.375 -5.658,24.246m39.6,85.95c-14,0 -25.821,-2.658 -35.425,-7.946c-9.613,-5.3 -16.883,-13.425 -21.817,-24.392c-4.946,-10.95 -7.412,-24.875 -7.412,-41.758c0,-17.058 2.467,-31.025 7.412,-41.896c4.933,-10.862 12.25,-18.946 21.954,-24.246c9.7,-5.296 21.821,-7.946 36.367,-7.946c13.296,0 24.425,2.554 33.408,7.679c8.979,5.117 15.762,12.754 20.342,22.9c4.583,10.146 6.871,22.863 6.871,38.125l0,11.312l-101.833,0c0.354,11.317 2.017,20.608 4.975,27.883c2.971,7.275 7.412,12.579 13.342,15.9c5.925,3.321 13.379,4.979 22.363,4.979c6.1,0 11.45,-0.758 16.029,-2.287c4.583,-1.525 8.438,-3.725 11.587,-6.6c3.142,-2.871 5.521,-6.287 7.133,-10.242c1.617,-3.942 2.512,-8.254 2.692,-12.933l23.175,0c-0.179,7.55 -1.612,14.513 -4.312,20.879c-2.692,6.387 -6.642,11.821 -11.854,16.308c-5.213,4.487 -11.579,7.987 -19.129,10.508c-7.542,2.513 -16.158,3.771 -25.867,3.771" style="fill:#FFFFFF;fill-rule:nonzero;"></path><rect x="2174.725" y="0" width="23.708" height="194.787" style="fill:#FFFFFF;"></rect><rect x="2231.7" y="0" width="23.708" height="194.787" style="fill:#FFFFFF;"></rect><path d="M2307.376,112.076l76.787,0c0,-7.904 -0.908,-14.546 -2.7,-19.938c-1.796,-5.383 -4.358,-9.783 -7.679,-13.2c-3.321,-3.408 -7.179,-5.879 -11.579,-7.404c-4.408,-1.529 -9.388,-2.296 -14.95,-2.296c-8.267,0 -15.271,1.529 -21.021,4.583c-5.754,3.054 -10.154,7.721 -13.2,14.008c-3.054,6.292 -4.942,14.375 -5.658,24.246m39.6,85.95c-14,0 -25.821,-2.658 -35.425,-7.946c-9.613,-5.3 -16.883,-13.425 -21.817,-24.392c-4.946,-10.95 -7.412,-24.875 -7.412,-41.758c0,-17.058 2.467,-31.025 7.412,-41.896c4.933,-10.862 12.25,-18.946 21.954,-24.246c9.7,-5.296 21.821,-7.946 36.367,-7.946c13.296,0 24.425,2.554 33.408,7.679c8.979,5.117 15.762,12.754 20.342,22.9c4.583,10.146 6.871,22.863 6.871,38.125l0,11.312l-101.833,0c0.354,11.317 2.017,20.608 4.975,27.883c2.971,7.275 7.412,12.579 13.342,15.9c5.925,3.321 13.379,4.979 22.363,4.979c6.1,0 11.45,-0.758 16.029,-2.287c4.583,-1.525 8.438,-3.725 11.587,-6.6c3.142,-2.871 5.521,-6.287 7.133,-10.242c1.617,-3.942 2.512,-8.254 2.692,-12.933l23.175,0c-0.179,7.55 -1.612,14.513 -4.312,20.879c-2.692,6.387 -6.642,11.821 -11.854,16.308c-5.213,4.487 -11.579,7.987 -19.129,10.508c-7.542,2.513 -16.158,3.771 -25.867,3.771" style="fill:#FFFFFF;fill-rule:nonzero;"></path></g>
    </svg>

